# xmcd
#
# Track frame offsets:
#	150
#	13299
#	25625
#	38745
#	49230
#	63064
#	74782
#	88565
#	102897
#	115477
#	127507
#	139299
#	152325
#	166086
#	177574
#	189376
#	200689
#	216236
#	229899
#	243198
#	257951
#	269035
#	281046
#	291252
#
# Disc length: 4022 seconds
#
# Revision: 1
# Processed by: cddbd v1.5.2PL0 Copyright (c) Steve Scherf et al.
# Submitted via: audiograbber 1.83.01
#
DISCID=670fb418
DTITLE=Various Artist - Even More Mellow Cats 'N' Kittens
DYEAR=1900
DGENRE=R and B
TTITLE0=HERB FISHER and HIS TRIO - Ride, Ride, Ride
TTITLE1=UNKNOWN COMBO - Pitch a Boogie
TTITLE2=CLARENCE WILLIAMS - My Baby Don't Understand
TTITLE3=BUTCH STONE and HIS ORCHESTRA - A Good Man is Hard to Find
TTITLE4=THREE BITS OF RHYTHM - Drop a Nicklel in the Slot
TTITLE5=JOHNNY OTIS and HIS ORCHESTRA - Mean Ole Gal
TTITLE6=JIM WYNN and HIS ORCHESTRA - Stop - Skip Four Beats!
TTITLE7=WILL ROWLAND and HIS ORCHESTRA - Huggin' the Pillow
TTITLE8=HAPPY JOHNSON SEXTETTE - B Splat
TTITLE9=AL CAKE WICHARD and HIS SEXTETTE - Pinocchio Blues aka Daddy Pinocchio
TTITLE10=BUTCH STONE and HIS ORCHESTRA - Little Girl
TTITLE11=HADDA BROOKS and HER TRIO - Bully Wully Boogie
TTITLE12=THREE BITS OF RHYTHM - The Signifying Monkey
TTITLE13=HELEN HUMES - The Laziest Gal in Town
TTITLE14=JOHNNY OTIS and HIS ORCHESTRA - Thursday Night Blues
TTITLE15=BUTCH STONE and HIS ORCHESTRA - My Feet's Too Big
TTITLE16=HOWARD McGHEE and HIS SEXTETTE - Gee I'm Lonesome
TTITLE17=SCAT MAN - Keep It Hot
TTITLE18=CLARENCE WILLIAMS - Baby Take Me Home with You
TTITLE19=HELEN HUMES - Living My Life My Way
TTITLE20=FELIX GROSS and HIS ORCHESTRA - Full House
TTITLE21=HOWARD McGHEE and HIS SEXTETTE - Play Fair aka Call It the Blues
TTITLE22=THREE BITS OF RHYTHM - Gruen Special
TTITLE23=BUTCH STONE and HIS ORCHESTRA - Baby Face
EXTD=Hot R&B and Cool Blues 1945-1951
EXTT0=
EXTT1=
EXTT2=
EXTT3=
EXTT4=
EXTT5=
EXTT6=
EXTT7=
EXTT8=
EXTT9=
EXTT10=
EXTT11=
EXTT12=
EXTT13=
EXTT14=
EXTT15=
EXTT16=
EXTT17=
EXTT18=
EXTT19=
EXTT20=
EXTT21=
EXTT22=
EXTT23=
PLAYORDER=
